<?xml version="1.0" encoding="UTF-8" standalone="no"?>
<svg
   xmlns:dc="http://purl.org/dc/elements/1.1/"
   xmlns:cc="http://creativecommons.org/ns#"
   xmlns:rdf="http://www.w3.org/1999/02/22-rdf-syntax-ns#"
   xmlns:svg="http://www.w3.org/2000/svg"
   xmlns="http://www.w3.org/2000/svg"
   xmlns:sodipodi="http://sodipodi.sourceforge.net/DTD/sodipodi-0.dtd"
   xmlns:inkscape="http://www.inkscape.org/namespaces/inkscape"
   width="256"
   height="256"
   viewBox="0 0 255.99999 256"
   version="1.1"
   id="svg4528"
   sodipodi:docname="logo_no_bg.svg"
   inkscape:version="0.92.4 (5da689c313, 2019-01-14)">
  <metadata
     id="metadata4534">
    <rdf:RDF>
      <cc:Work
         rdf:about="">
        <dc:format>image/svg+xml</dc:format>
        <dc:type
           rdf:resource="http://purl.org/dc/dcmitype/StillImage" />
        <dc:title></dc:title>
      </cc:Work>
    </rdf:RDF>
  </metadata>
  <defs
     id="defs4532" />
  <sodipodi:namedview
     pagecolor="#ffffff"
     bordercolor="#666666"
     borderopacity="1"
     objecttolerance="10"
     gridtolerance="10"
     guidetolerance="10"
     inkscape:pageopacity="0"
     inkscape:pageshadow="2"
     inkscape:window-width="2880"
     inkscape:window-height="1706"
     id="namedview4530"
     showgrid="false"
     inkscape:zoom="2.4139708"
     inkscape:cx="246.01844"
     inkscape:cy="138.77625"
     inkscape:window-x="2869"
     inkscape:window-y="-11"
     inkscape:window-maximized="1"
     inkscape:current-layer="svg4528" />
  <circle
     style="fill:#35c6e7;fill-opacity:1;stroke:none;stroke-width:18.20292854;stroke-miterlimit:4;stroke-dasharray:none;stroke-opacity:1"
     id="path4606"
     cx="130"
     cy="126"
     r="125" />
  <path
     style="fill:#ffe300;stroke-width:0.82898277"
     d="M 128 0 C 57.373673 1.9038635e-06 1.9038635e-06 57.373673 0 128 C 0 198.62633 57.373672 256 128 256 C 198.62633 256 256 198.62633 256 128 C 256 57.373672 198.62633 0 128 0 z M 128 11.164062 C 152.74274 11.164063 175.66866 18.836451 194.54492 31.925781 C 192.76589 37.555725 190.28042 44.423771 184.57031 58.642578 C 179.93983 58.284146 175.28253 58.608297 170.74609 59.603516 C 149.66834 64.244966 132.37561 83.124427 119.33594 115.68164 C 109.07755 117.7852 99.522252 119.42036 91.564453 120.39062 C 77.057146 122.16003 64.852359 129.22954 57.197266 140.29492 C 50.376307 150.1555 47.667245 162.28628 49.648438 174.11133 C 50.345473 178.13531 51.64594 182.03118 53.503906 185.66797 C 41.944031 193.26286 37.556128 193.68294 32.382812 195.20508 C 19.013466 176.20478 11.164063 153.03099 11.164062 128 C 11.164065 63.407309 63.407309 11.164064 128 11.164062 z M 211.1543 45.884766 C 231.98447 66.977388 244.83594 95.968277 244.83594 128 C 244.83594 192.59269 192.59269 244.83594 128 244.83594 C 96.882119 244.83594 68.634023 232.70754 47.708984 212.91797 C 50.82952 211.72233 49.024005 212.40466 67.191406 200.42773 C 73.88317 204.42429 82.409494 206.5066 92.744141 205.48242 C 106.21329 204.14758 122.73508 190.53143 143.25391 163.85938 C 152.13097 152.31531 161.60118 138.40352 171.15039 123.00195 C 172.92775 122.48576 174.68926 121.96317 176.43555 121.43555 C 228.52044 105.7079 230.93215 96.477639 232.0918 92.037109 C 233.34134 87.248409 231.62664 82.328443 227.50391 78.876953 C 220.50187 72.846885 212.70581 67.808094 204.33203 63.900391 C 208.87683 51.700449 210.29465 48.071893 211.1543 45.884766 z M 173.65234 79.087891 C 168.44643 88.5128 163.14804 97.66791 157.84961 106.39648 C 153.23912 107.6734 148.55527 108.90761 143.87695 110.08008 C 152.60523 93.149904 162.71821 82.58494 173.65234 79.087891 z M 195.52148 80.722656 C 200.20418 82.697419 204.64263 85.208383 208.75 88.201172 C 204.48682 90.534472 197.3057 93.746179 186.17969 97.636719 C 189.3269 92.092149 192.44085 86.454529 195.52148 80.722656 z M 142.4043 130.57812 C 137.25255 138.2214 132.17555 145.31252 127.25781 151.70508 C 102.79124 183.51046 91.615992 186.10755 89.625 186.30469 C 87.638296 186.51771 85.635182 186.51733 83.648438 186.30469 C 98.692926 171.65079 124.59432 145.72985 133.41992 132.64258 L 133.42188 132.64648 C 136.39589 131.98566 139.38942 131.29601 142.4043 130.57812 z M 102.46094 138.51172 L 102.46289 138.51367 C 93.682311 148.00387 81.897689 160.03692 69.152344 172.44727 C 69.120124 172.28274 69.092633 172.1216 69.064453 171.96289 C 66.994424 160.06184 73.706302 142.12668 95.115234 139.51562 C 97.460776 139.23028 99.909273 138.89565 102.46094 138.51172 z "
     id="logo_duze_linia" />
</svg>
