<svg xmlns="http://www.w3.org/2000/svg" xmlns:xlink="http://www.w3.org/1999/xlink" width="170.172" height="90.902" viewBox="0 0 170.172 90.902">
  <defs>
    <clipPath id="clip-path">
      <path id="Path_96" data-name="Path 96" d="M0,0H170.172V-90.9H0Z" fill="none"/>
    </clipPath>
  </defs>
  <g id="logo_dol" data-name="logo dol" transform="translate(0 90.902)">
    <g id="Group_30" data-name="Group 30" clip-path="url(#clip-path)">
      <g id="Group_26" data-name="Group 26" transform="translate(4.976 -63.275)">
        <path id="Path_92" data-name="Path 92" d="M0,0,3.336-27.138h7c3.581,0,5.9.691,7.487,2.157a7.533,7.533,0,0,1,2.2,5.7,11.145,11.145,0,0,1-2.97,7.731C15.217-9.643,12.979-8.87,9.439-8.87c-.162,0-.651,0-1.139-.04L7.2,0ZM9.4-14.972a3.31,3.31,0,0,0,3.3-3.581,2.385,2.385,0,0,0-2.36-2.686l-.529.041-.732,6.226Z" fill="#fce853"/>
      </g>
      <g id="Group_27" data-name="Group 27" transform="translate(35.407 -63.275)">
        <path id="Path_93" data-name="Path 93" d="M0,0-1.627-6.673c-.529-2.278-.9-3.825-1.059-4.6-.243,2.889-.284,2.889-.325,3.582L-3.988,0h-7.2l3.336-27.138H-.488c3.295,0,5.614.651,7.08,1.952A7.657,7.657,0,0,1,8.87-19.407c0,3.947-1.709,6.712-5.046,8.136L7.812,0ZM-2.2-14.606a2.519,2.519,0,0,0,.488.041,3.721,3.721,0,0,0,3.377-3.907q0-2.562-2.807-2.564h-.245Z" fill="#fce853"/>
      </g>
      <g id="Group_28" data-name="Group 28" transform="translate(57.171 -63.275)">
        <path id="Path_94" data-name="Path 94" d="M0,0-.081-3.458H-4.964L-5.981,0h-7.446l9.765-27.138h8.83L7.487,0ZM-.284-12.45c-.041-.285-.041-2.685-.041-3.54,0-.57,0-.57.122-4.678l-.529,2.156c-.2.936-.651,2.6-1.261,4.963L-3.255-9.277H-.244Z" fill="#fce853"/>
      </g>
      <g id="Group_29" data-name="Group 29" transform="translate(80.36 -63.764)">
        <path id="Path_95" data-name="Path 95" d="M0,0A10.716,10.716,0,0,1-4.435.977c-5.737,0-9.439-4.313-9.439-11.068,0-4.515,1.22-8.787,3.376-11.636A12.633,12.633,0,0,1-.2-27.138a8.453,8.453,0,0,1,3.54.65L2.4-18.716A3.732,3.732,0,0,0-.733-20.344c-3.336,0-5.695,3.743-5.695,9.115C-6.428-7.975-5.045-6.1-2.6-6.1c1.384,0,2.4-.448,3.988-1.75Z" fill="#fce853"/>
      </g>
    </g>
    <g id="Group_31" data-name="Group 31" transform="translate(86.053 -90.413)">
      <path id="Path_97" data-name="Path 97" d="M0,0-3.336,27.138H10.09l.773-6.51H4.679l.528-4.15h5.535l.773-6.143H5.94l.489-3.948h6.184L13.426,0Z" fill="#fce853"/>
    </g>
    <g id="Group_38" data-name="Group 38" clip-path="url(#clip-path)">
      <g id="Group_32" data-name="Group 32" transform="translate(3.817 -59.019)">
        <path id="Path_98" data-name="Path 98" d="M0,0H6.877l2.44,9.521c.489,1.871.489,2.034,1.425,6.835A88.7,88.7,0,0,1,11.149,6.1L11.921,0H18.8L15.461,27.138H8.586l-2.4-9.969c-.692-3.01-.855-3.742-1.14-5.655-.162,3.865-.325,6.1-.65,8.707L3.54,27.138H-3.336Z" fill="#fce853"/>
      </g>
      <g id="Group_33" data-name="Group 33" transform="translate(34.003 -31.881)">
        <path id="Path_99" data-name="Path 99" d="M0,0-.081-3.458H-4.964L-5.981,0h-7.446l9.765-27.138h8.83L7.487,0ZM-.284-12.45c-.041-.285-.041-2.685-.041-3.54,0-.57,0-.57.122-4.678l-.529,2.156c-.2.934-.651,2.6-1.261,4.963L-3.255-9.277H-.244Z" fill="#fce853"/>
      </g>
      <g id="Group_34" data-name="Group 34" transform="translate(14.484 -0.488)">
        <path id="Path_100" data-name="Path 100" d="M0,0-.488-9.521c-.041-2.36-.122-4.842-.163-7.446-.2.895-.325,1.506-.407,1.75l-.407,1.953c-.325,1.505-.488,2.157-.813,3.418L-4.842,0h-7.039l-2.6-27.138h7.121l.285,7.486c0,1.912.04,2.319.04,2.319L-7-14.688c0,.529,0,.529-.081,4.516l.691-3.092c.326-1.465.57-2.4,1.587-6.1l2.319-7.771H3.7l.447,6.51c.082,1.668.2,5.981.2,8.219,0,.528,0,1.423-.041,2.563.529-2.808,1.343-6.428,1.994-8.87l2.359-8.422h7.04L6.958,0Z" fill="#fce853"/>
      </g>
      <g id="Group_35" data-name="Group 35" transform="translate(33.644 -0.488)">
        <path id="Path_101" data-name="Path 101" d="M0,0,1.424-11.514-3.3-27.138H4.231l.814,4.027a35.934,35.934,0,0,1,.692,4.354c.773-2.035,1.221-3.134,1.749-4.313l1.791-4.068h7.486L8.626-11.514,7.2,0Z" fill="#fce853"/>
      </g>
      <g id="Group_36" data-name="Group 36" transform="translate(48.126 -9.684)">
        <path id="Path_102" data-name="Path 102" d="M0,0C1.139,1.954,2.6,2.97,4.191,2.97A2.155,2.155,0,0,0,6.551.936c0-.895-.123-1.059-2.076-2.767C1.994-4.028.977-5.94.977-8.462a10.875,10.875,0,0,1,2.481-6.592,8.614,8.614,0,0,1,6.8-3.377A10.052,10.052,0,0,1,15.3-17.048l-1.059,8.3c-.935-1.83-2.4-2.97-3.865-2.97A2.032,2.032,0,0,0,8.26-9.887c0,.855.285,1.22,2.278,2.808,2.4,1.953,3.418,3.784,3.418,6.266,0,5.859-4.354,10.5-9.847,10.5A12.343,12.343,0,0,1-1.058,8.5Z" fill="#fce853"/>
      </g>
      <g id="Group_37" data-name="Group 37" transform="translate(84.66 -17.251)">
        <path id="Path_103" data-name="Path 103" d="M0,0C0,9.846-5.126,17.251-11.881,17.251A8.441,8.441,0,0,1-18.8,13.629a13.212,13.212,0,0,1-1.872-7.567c0-4.558,1.18-8.911,3.214-11.8,2.319-3.256,5.574-5.127,8.911-5.127C-3.255-10.864,0-6.714,0,0M-13.223,6.021c0,2.889.651,4.354,1.953,4.354A2.9,2.9,0,0,0-9.032,8.462,21.328,21.328,0,0,0-7.486.121c0-2.766-.651-4.15-1.872-4.15-2.116,0-3.865,4.557-3.865,10.05" fill="#fce853"/>
      </g>
    </g>
    <g id="Group_39" data-name="Group 39" transform="translate(99.671 -27.626)">
      <path id="Path_105" data-name="Path 105" d="M0,0-5.656,11.637-4.068,0h-7.2l-3.336,27.138h7.2l1.383-12.49,3.255,12.49H5.005L.245,13.1,7.609,0Z" fill="#fce853"/>
    </g>
    <g id="Group_43" data-name="Group 43" clip-path="url(#clip-path)">
      <g id="Group_40" data-name="Group 40" transform="translate(126.766 -17.251)">
        <path id="Path_106" data-name="Path 106" d="M0,0C0,9.846-5.126,17.251-11.881,17.251A8.441,8.441,0,0,1-18.8,13.629a13.212,13.212,0,0,1-1.872-7.567c0-4.558,1.18-8.911,3.214-11.8,2.319-3.256,5.574-5.127,8.911-5.127C-3.255-10.864,0-6.714,0,0M-13.223,6.021c0,2.889.651,4.354,1.953,4.354A2.905,2.905,0,0,0-9.032,8.462,21.328,21.328,0,0,0-7.486.121c0-2.766-.651-4.15-1.871-4.15-2.117,0-3.866,4.557-3.866,10.05" fill="#fce853"/>
      </g>
      <g id="Group_41" data-name="Group 41" transform="translate(127.739 -9.684)">
        <path id="Path_107" data-name="Path 107" d="M0,0C1.139,1.954,2.6,2.97,4.191,2.97A2.155,2.155,0,0,0,6.551.936c0-.895-.123-1.059-2.075-2.767C1.994-4.028.976-5.94.976-8.462a10.876,10.876,0,0,1,2.482-6.592,8.614,8.614,0,0,1,6.8-3.377A10.045,10.045,0,0,1,15.3-17.048l-1.058,8.3c-.935-1.83-2.4-2.97-3.865-2.97A2.032,2.032,0,0,0,8.26-9.887c0,.855.285,1.22,2.278,2.808,2.4,1.953,3.418,3.784,3.418,6.266,0,5.859-4.353,10.5-9.847,10.5A12.346,12.346,0,0,1-1.058,8.5ZM12-20.1H7.975l2.6-5.9h5.533Z" fill="#fce853"/>
      </g>
      <g id="Group_42" data-name="Group 42" transform="translate(157.277 -0.977)">
        <path id="Path_108" data-name="Path 108" d="M0,0A10.716,10.716,0,0,1-4.435.977c-5.737,0-9.439-4.313-9.439-11.068,0-4.515,1.22-8.787,3.376-11.637A12.635,12.635,0,0,1-.2-27.138a8.453,8.453,0,0,1,3.54.65L2.4-18.717A3.733,3.733,0,0,0-.733-20.344c-3.336,0-5.695,3.743-5.695,9.114C-6.428-7.974-5.045-6.1-2.6-6.1c1.384,0,2.4-.447,3.988-1.749Z" fill="#fce853"/>
      </g>
    </g>
    <g id="Group_44" data-name="Group 44" transform="translate(162.969 -27.626)">
      <path id="Path_110" data-name="Path 110" d="M0,0-3.335,27.138h7.2L7.2,0Z" fill="#fce853"/>
    </g>
  </g>
</svg>
