<svg xmlns="http://www.w3.org/2000/svg" xmlns:xlink="http://www.w3.org/1999/xlink" width="2420.1" height="1465.735" viewBox="0 0 2420.1 1465.735">
  <defs>
    <clipPath id="clip-path">
      <path id="Path_122" data-name="Path 122" d="M0,0H806.461V-1299.67H0Z" fill="none"/>
    </clipPath>
    <clipPath id="clip-path-2">
      <path id="Path_124" data-name="Path 124" d="M0,0H524.451V-207.082H0Z" fill="none"/>
    </clipPath>
  </defs>
  <g id="Group_69" data-name="Group 69" transform="translate(454.639 -2915.67)">
    <g id="ozdobnik_bok" data-name="ozdobnik bok" transform="translate(0 10)">
      <g id="ozdobnik_bok-2" data-name="ozdobnik bok" transform="translate(1159 4205.34)">
        <g id="Group_57" data-name="Group 57" clip-path="url(#clip-path)">
          <g id="Group_56" data-name="Group 56" transform="translate(802.969 -1289.65)">
            <path id="Path_121" data-name="Path 121" d="M0,0C-229.159,79.862-132.754,301.7-142.958,403.361c-28.988,288.829-335.781,238.1-266.52,177.964,54.288-47.138,99.35,293,62.249,326.568-29.948,27.1-63.5-23.819-32.334-53.336,32.288-30.578,88.153-103.344,72.526-104.864-67.841-6.6-56.349,57.982-50.67,81.89,2.082,8.778-6.33,57.9-11.319,83.607-.291,1.495-147.821,303.582-431.732,364.082" fill="none" stroke="#fce853" stroke-width="21"/>
          </g>
        </g>
      </g>
      <g id="Group_61" data-name="Group 61" transform="translate(621.361 4109.18) rotate(30)">
        <g id="Group_60" data-name="Group 60" clip-path="url(#clip-path-2)">
          <g id="Group_59" data-name="Group 59" transform="translate(516.307 -200.279)">
            <path id="Path_123" data-name="Path 123" d="M0,0S-158.307,189.669-516.307,189.669" fill="none" stroke="#fce853" stroke-width="21.222"/>
          </g>
        </g>
      </g>
      <g id="Group_62" data-name="Group 62" transform="translate(633.09 4092.067) rotate(-150)">
        <g id="Group_60-2" data-name="Group 60" clip-path="url(#clip-path-2)">
          <g id="Group_59-2" data-name="Group 59" transform="translate(516.307 -200.279)">
            <path id="Path_123-2" data-name="Path 123" d="M0,0S-158.307,189.669-516.307,189.669" fill="none" stroke="#fce853" stroke-width="21.222"/>
          </g>
        </g>
      </g>
      <g id="Group_63" data-name="Group 63" transform="translate(-454.639 3919.18) rotate(30)">
        <g id="Group_60-3" data-name="Group 60" clip-path="url(#clip-path-2)">
          <g id="Group_59-3" data-name="Group 59" transform="translate(516.307 -200.279)">
            <path id="Path_123-3" data-name="Path 123" d="M0,0S-158.307,189.669-516.307,189.669" fill="none" stroke="#fce853" stroke-width="21.222"/>
          </g>
        </g>
      </g>
    </g>
  </g>
</svg>
