<svg xmlns="http://www.w3.org/2000/svg" width="574.166" height="894" viewBox="0 0 574.166 894">
  <path id="logo_duze_linia" data-name="logo duze linia" d="M550.088,832.573l-11.931-19.812c196.088-104.243,311.355-221.3,373.523-301.15,53.521-68.738,78.254-122.654,86.778-143.765a49.041,49.041,0,0,1-11.76-8.813,55.567,55.567,0,0,1-15.743-38.719c-.009-16.231,7.24-31.623,20.411-43.342,7.225-6.428,15.578-14.613,24.306-23.745-9.431-41.242-5.251-71.843,12.463-90.923a57.218,57.218,0,0,1,13.05-10.448c-2.507-19.34-5.593-38.815-9.2-57.755-13.264-69.658-31.717-122.052-49.363-140.156l17.869-15.372c29.37,30.132,52.2,118.206,63.9,204.924a121.709,121.709,0,0,1,33.267-1.064c6.459.591,11.539,4.293,13.589,9.9,1.9,5.2,5.848,16.01-35,67.381q-2.054,2.584-4.166,5.183c1.109,21.832,1.274,42.132.4,59.677-2.028,40.543-9.06,65.394-21.5,75.969-9.545,8.114-19.432,11.905-28.813,12.538-8.408,21.547-33.323,77.323-88.583,148.949C893.008,574.614,844.241,625.24,788.629,672.5,719.286,731.435,639.03,785.291,550.088,832.573Zm491.2-572.2c.237,19.04-7.646,62.535-12.5,87.4a33.846,33.846,0,0,0,5.927-4.106c1.839-1.563,11.137-11.813,13.554-60.158.486-9.717.651-20.237.51-31.355Q1045.034,256.328,1041.291,260.375Zm-26.67,27.083q-3.4,3.2-6.595,6.041c-19.437,17.294-13.775,39.691-3.548,50.071.137.138.276.277.421.418C1009.011,322.925,1012.432,302.9,1014.621,287.458ZM1044.4,179.631c-8.441,10.978-11.214,28.4-8.241,51.184,3.834-4.376,7.632-8.816,11.327-13.249C1046.745,205.271,1045.711,192.553,1044.4,179.631Zm22.81-13.4q1.323,11.7,2.354,23.19c8.361-11.5,13.275-19.619,15.9-24.861A79.665,79.665,0,0,0,1067.208,166.233Z" transform="translate(-538.157 61.427)" fill="#ffe300"/>
</svg>
